<?xml version="1.0" encoding="UTF-8"?>
<!DOCTYPE svg PUBLIC "-//W3C//DTD SVG 1.1//EN" "http://www.w3.org/Graphics/SVG/1.1/DTD/svg11.dtd">
<svg version="1.1" xmlns="http://www.w3.org/2000/svg" xmlns:xlink="http://www.w3.org/1999/xlink" width="400" height="392"  xml:space="preserve" id="logoCanvas">
    <!-- Generated by PaintCode - http://www.paintcodeapp.com -->

	<!-- This code was generated by Trial version of PaintCode, therefore cannot be used for commercial purposes. -->

	<g id="logoCanvas-svgg">
        <path id="logoCanvas-path0" fill-rule="evenodd" stroke="none" fill="rgb(251, 4, 4)" d="M 187.34,0.2 C 113.31,5.91 51.53,46.5 20,110.16 -36.32,223.86 30.77,360.38 156.25,387.37 292.96,416.78 416.93,304.72 398.09,168.75 386.44,84.63 319.5,17.04 233.62,2.65 220.99,0.54 198.45,-0.66 187.34,0.2 Z M 222.34,26.04 C 225.78,26.51 230.42,27.26 232.66,27.71 234.89,28.16 237.77,28.72 239.06,28.95 243.31,29.72 251.91,32.24 259.84,35.05 266.24,37.31 267.33,37.73 269.5,38.76 270.58,39.27 271.56,39.69 271.68,39.69 271.98,39.69 282.85,45.08 285.31,46.45 286.43,47.07 287.77,47.81 288.28,48.1 290.77,49.47 292.47,50.51 293.79,51.46 294.59,52.03 295.35,52.5 295.47,52.5 295.6,52.5 296.39,52.99 297.23,53.59 298.07,54.19 298.83,54.69 298.92,54.69 299.01,54.69 299.76,55.22 300.6,55.86 301.43,56.5 303.08,57.7 304.26,58.52 308.44,61.43 315.55,67.26 319.22,70.78 323.43,74.83 327.92,79.32 329.69,81.26 330.81,82.48 332.33,84.14 333.07,84.94 333.81,85.75 335.28,87.5 336.33,88.83 337.38,90.16 338.36,91.25 338.51,91.25 338.66,91.25 338.71,91.37 338.63,91.51 338.54,91.65 338.85,92.19 339.31,92.7 339.78,93.21 340.36,94.01 340.6,94.47 340.84,94.93 341.15,95.31 341.27,95.31 341.4,95.31 342.47,96.75 343.64,98.52 344.81,100.28 346.02,101.99 346.32,102.32 346.63,102.66 346.88,103.05 346.88,103.2 346.88,103.5 348.41,105.65 348.85,105.97 348.99,106.07 349.14,106.37 349.18,106.64 349.21,106.91 349.6,107.67 350.04,108.33 351.44,110.46 352.81,112.85 352.81,113.15 352.81,113.31 352.95,113.44 353.12,113.44 353.3,113.44 353.41,113.54 353.37,113.67 353.29,113.97 354.31,115.93 354.89,116.6 355.13,116.88 355.38,117.37 355.45,117.7 355.51,118.03 356.02,119.07 356.57,120.01 357.12,120.95 357.6,121.87 357.63,122.05 357.65,122.24 358.23,123.43 358.9,124.71 359.57,125.99 360.06,127.03 360,127.03 359.93,127.03 360.33,127.98 360.88,129.14 361.43,130.3 361.88,131.39 361.88,131.55 361.88,131.72 362.21,132.6 362.61,133.51 363.73,136.01 363.85,136.35 363.94,137.13 363.99,137.54 364.16,138.03 364.32,138.23 364.72,138.74 366,142.19 366.11,143.08 366.16,143.48 366.48,144.53 366.83,145.42 367.59,147.39 368.05,148.91 368.26,150.17 368.35,150.69 368.77,152.21 369.2,153.55 369.62,154.89 370.06,156.65 370.18,157.45 370.29,158.25 370.8,160.66 371.3,162.81 371.8,164.96 372.28,167.56 372.37,168.59 372.45,169.62 372.65,171.24 372.82,172.19 374.98,184.35 374.98,207.53 372.82,219.68 372.65,220.63 372.44,222.28 372.36,223.34 372.27,224.4 371.78,227.05 371.26,229.23 370.74,231.41 370.31,233.51 370.31,233.9 370.31,234.29 369.88,236.07 369.34,237.85 368.81,239.63 368.34,241.37 368.29,241.72 368.18,242.6 367.37,245.18 366.61,247.07 366.26,247.96 366.04,248.74 366.11,248.82 366.19,248.89 365.75,250.21 365.14,251.74 364.52,253.28 363.98,254.81 363.93,255.16 363.88,255.5 363.39,256.73 362.86,257.9 362.32,259.06 361.88,260.15 361.88,260.32 361.88,260.49 361.44,261.53 360.92,262.65 360.39,263.76 359.98,264.75 360,264.84 360.01,264.94 359.5,266.02 358.85,267.25 358.2,268.48 357.65,269.64 357.63,269.82 357.6,270.01 357.12,270.92 356.57,271.86 356.02,272.8 355.52,273.8 355.47,274.08 355.41,274.36 354.9,275.35 354.32,276.28 353.75,277.21 353.24,278.18 353.18,278.44 353.12,278.69 352.97,278.97 352.84,279.06 352.71,279.15 352.07,280.2 351.42,281.39 350.77,282.58 350.04,283.75 349.81,283.99 349.57,284.23 349.29,284.76 349.19,285.18 349.08,285.6 348.89,285.94 348.77,285.94 348.65,285.94 348.22,286.54 347.81,287.27 347.41,288 347,288.66 346.9,288.75 346.8,288.84 346.58,289.13 346.41,289.41 345.2,291.36 341.55,296.49 341.14,296.84 340.86,297.07 340.62,297.37 340.62,297.51 340.62,297.64 340.19,298.25 339.65,298.85 339.12,299.45 338.71,300.05 338.74,300.17 338.78,300.3 338.67,300.49 338.5,300.59 338.34,300.69 337.12,302.12 335.81,303.75 334.49,305.38 333.06,306.98 332.64,307.29 332.22,307.61 331.88,308.01 331.88,308.2 331.88,308.38 331.35,309.05 330.7,309.68 330.06,310.3 327.42,312.94 324.84,315.53 318.73,321.67 319.01,321.4 315.96,324.09 311.61,327.92 302.23,335.13 299.11,337.04 298.83,337.21 297.19,338.28 295.47,339.41 291.7,341.88 288.6,343.75 288.26,343.75 288.13,343.75 287.8,343.95 287.52,344.19 286.94,344.72 274.51,351.07 272.5,351.88 271.73,352.19 270.16,352.87 269.01,353.41 267.87,353.94 266.78,354.38 266.6,354.38 266.42,354.38 265.38,354.78 264.31,355.27 263.23,355.76 261.99,356.27 261.56,356.39 261.13,356.51 259.66,357.01 258.28,357.49 252.97,359.36 242.76,362.28 239.67,362.8 238.74,362.96 236.42,363.45 234.53,363.89 232.64,364.33 229.83,364.83 228.28,365 226.73,365.17 224.62,365.44 223.59,365.61 212.39,367.44 186.92,367.43 176.41,365.59 175.39,365.41 173.38,365.14 171.94,364.99 167.37,364.52 155.76,361.84 148.59,359.6 146.88,359.07 144.91,358.46 144.22,358.25 135.29,355.57 121.74,349.49 111.35,343.49 110.11,342.78 108.59,341.91 107.97,341.56 107.35,341.21 106.67,340.78 106.47,340.6 105.99,340.18 102.32,337.79 101.27,337.22 100.83,336.98 100.4,336.69 100.31,336.58 100.23,336.47 99,335.57 97.58,334.59 96.16,333.6 94.06,332.06 92.91,331.16 88.88,328 85.77,325.5 85.09,324.86 84.71,324.51 83.87,323.75 83.22,323.17 76.85,317.56 65.16,305.13 61.63,300.23 61.05,299.42 60.44,298.75 60.28,298.75 60.13,298.75 60,298.56 60,298.33 60,298.09 59.67,297.54 59.26,297.11 58.57,296.36 58.12,295.74 55.56,291.95 55,291.14 54.3,290.2 53.99,289.86 53.69,289.53 53.44,289.15 53.44,289.01 53.44,288.7 51.51,285.86 51.09,285.55 50.92,285.42 50.9,285.32 51.05,285.32 51.2,285.31 50.98,284.85 50.56,284.3 50.15,283.74 49.26,282.3 48.6,281.09 47.94,279.89 47.31,278.84 47.21,278.75 47.11,278.66 46.99,278.39 46.93,278.14 46.88,277.89 46.41,277.05 45.89,276.28 45.37,275.51 44.9,274.66 44.84,274.38 44.79,274.11 44.3,273.11 43.74,272.18 43.19,271.24 42.71,270.33 42.69,270.16 42.66,269.98 42.2,268.93 41.67,267.81 39.7,263.72 38.44,260.9 38.44,260.61 38.44,260.45 37.94,259.24 37.34,257.93 36.73,256.61 36.29,255.48 36.37,255.4 36.49,255.28 36,253.99 34.84,251.4 34.6,250.88 34.35,250.1 34.27,249.67 34.19,249.23 33.68,247.55 33.14,245.92 32.59,244.3 32.09,242.62 32.03,242.19 31.98,241.76 31.57,240.28 31.13,238.91 30.7,237.53 30.25,235.77 30.14,235 30.02,234.23 29.61,232.26 29.21,230.62 28.44,227.41 28.25,226.33 26.95,217.34 26.11,211.49 26.09,211.18 26.1,195.78 L 26.1,180.16 26.99,174.53 C 27.48,171.44 27.87,168.69 27.86,168.44 27.83,167.61 30,157.46 30.97,153.91 31.48,152.02 31.95,150.19 32,149.84 32.13,148.97 32.43,147.98 33.29,145.62 33.7,144.51 34.1,143.24 34.18,142.81 34.25,142.38 34.76,140.91 35.3,139.53 35.85,138.16 36.33,136.75 36.38,136.41 36.44,136.06 36.92,134.83 37.46,133.66 38,132.5 38.44,131.42 38.44,131.26 38.44,130.99 39.54,128.54 41.67,124.07 42.2,122.96 42.66,121.91 42.69,121.73 42.71,121.55 43.19,120.64 43.74,119.7 44.3,118.76 44.8,117.72 44.87,117.38 44.93,117.04 45.11,116.68 45.26,116.58 45.41,116.49 46.03,115.49 46.64,114.38 48.58,110.8 50.04,108.29 50.47,107.81 50.7,107.56 50.94,107.13 50.99,106.88 51.05,106.62 51.17,106.34 51.27,106.25 51.64,105.92 53.44,103.16 53.44,102.91 53.44,102.77 53.86,102.16 54.38,101.56 54.89,100.96 55.31,100.31 55.31,100.1 55.31,99.9 55.42,99.69 55.56,99.63 55.7,99.58 56.29,98.83 56.88,97.97 57.47,97.11 58.37,95.95 58.88,95.39 59.39,94.83 59.69,94.38 59.53,94.38 59.38,94.38 59.47,94.2 59.73,93.98 59.99,93.77 61.39,92.06 62.84,90.18 65.46,86.78 67.76,84.12 69.52,82.44 70.03,81.96 70.36,81.56 70.26,81.56 70,81.56 81.29,70.43 83.44,68.57 84.38,67.76 85.23,67 85.31,66.89 85.46,66.69 88.4,64.31 92.48,61.09 93.56,60.23 95.68,58.68 97.19,57.64 98.69,56.6 100.16,55.51 100.45,55.22 100.74,54.93 101.17,54.69 101.39,54.69 101.61,54.69 101.98,54.47 102.2,54.2 102.42,53.94 103.46,53.22 104.5,52.61 105.55,52 106.48,51.4 106.56,51.27 106.7,51.09 108.93,49.78 111.93,48.12 117.59,45.01 122.24,42.55 123.12,42.2 123.73,41.97 124.64,41.53 125.16,41.23 125.67,40.92 126.8,40.4 127.66,40.06 128.52,39.72 130.16,39 131.3,38.47 132.45,37.94 133.53,37.5 133.71,37.5 133.9,37.5 134.79,37.16 135.69,36.75 136.6,36.34 138.05,35.77 138.91,35.49 139.77,35.2 141.38,34.64 142.5,34.24 147.09,32.56 157.41,29.66 161.29,28.95 162.56,28.71 165.35,28.16 167.5,27.72 170.66,27.07 179.19,25.86 185.31,25.2 190.4,24.65 216.43,25.24 222.34,26.04 Z M 222.34,26.04" />
		<path id="logoCanvas-path1" fill-rule="evenodd" stroke="none" fill="rgb(251, 251, 251)" d="M 110.31,151.56 L 110.31,224.69 202.81,224.69 C 290.69,224.69 295.31,224.71 295.35,225.23 296.12,237.04 293.88,276.22 292.21,280.16 292.06,280.5 291.71,281.69 291.42,282.81 288.14,295.46 272.56,299.53 239.42,296.38 237.6,296.21 237.45,296.24 237.6,296.77 237.68,297.08 238.06,298.68 238.43,300.31 238.81,301.94 239.23,303.56 239.38,303.91 239.53,304.25 240.11,306.54 240.67,308.99 L 241.68,313.46 262.95,313.37 284.22,313.28 287.5,312.24 C 299.21,308.54 305.45,302.89 308.11,293.59 308.5,292.22 308.94,290.81 309.09,290.47 309.54,289.39 310.55,284.07 311.08,280 311.37,277.85 311.72,275.53 311.88,274.84 312.03,274.16 312.23,272.75 312.33,271.72 312.98,264.77 313.17,262.54 313.57,256.41 314.16,247.59 314.66,231.77 314.78,218.36 L 314.87,207.81 269.08,207.81 C 243.89,207.8 223.1,207.69 222.89,207.55 222.58,207.36 222.51,204.44 222.57,194.04 L 222.66,180.78 258.67,180.7 294.69,180.62 294.69,172.19 294.69,163.75 258.59,163.75 222.5,163.75 222.5,150.97 C 222.5,139.61 222.55,138.17 222.99,138 223.27,137.9 239.58,137.81 259.24,137.81 L 295,137.81 295,129.53 295,121.25 258.75,121.25 222.5,121.25 222.5,108.44 C 222.5,101.39 222.53,95.59 222.58,95.55 222.62,95.51 241.71,95.4 265,95.31 L 307.34,95.16 307.34,86.87 307.34,78.59 208.83,78.51 110.31,78.44 110.31,151.56 Z M 203.99,108.36 L 203.91,121.09 166.56,121.09 129.22,121.09 129.14,108.36 129.05,95.62 166.56,95.62 204.07,95.62 203.99,108.36 Z M 203.99,150.86 L 203.91,163.59 166.56,163.59 129.22,163.59 129.14,150.86 129.05,138.12 166.56,138.12 204.07,138.12 203.99,150.86 Z M 203.99,194.14 L 203.91,207.66 166.56,207.66 129.22,207.66 129.14,194.53 C 129.09,187.31 129.12,181.23 129.21,181.02 129.32,180.71 137.11,180.62 166.71,180.62 L 204.07,180.62 203.99,194.14 Z M 250.31,237.27 C 240.65,240.44 239.38,240.95 239.71,241.51 240.58,243.03 245.58,255.55 247.65,261.41 248.55,263.98 249.4,266.34 249.53,266.65 249.66,266.95 250.46,269.41 251.31,272.11 252.17,274.82 253.1,277.77 253.39,278.67 253.67,279.57 254.05,280.31 254.22,280.3 254.39,280.3 258.07,279.42 262.4,278.35 L 270.27,276.4 269.67,274.68 C 269.34,273.74 268.57,271.28 267.94,269.22 267.32,267.16 266.63,265.05 266.4,264.53 266.18,264.02 265.4,261.77 264.68,259.53 263.96,257.3 263.19,255.19 262.98,254.84 262.77,254.5 262.34,253.44 262.03,252.5 261.33,250.37 256.89,239.83 255.71,237.5 L 254.84,235.78 250.31,237.27 Z M 107.22,240.83 C 107.04,241.49 106.47,243.91 105.94,246.2 105.41,248.49 104.78,250.95 104.54,251.67 104.3,252.38 103.52,255.21 102.81,257.95 102.1,260.69 101.41,263.15 101.27,263.42 101.12,263.69 100.56,265.52 100.01,267.5 99.02,271.09 95.61,281.51 94.86,283.28 94.64,283.8 93.87,285.91 93.15,287.97 92.43,290.03 91.58,292.28 91.26,292.97 90.94,293.66 90.15,295.55 89.52,297.19 88.88,298.82 88.25,300.3 88.11,300.47 87.98,300.64 87.32,302.07 86.64,303.65 L 85.41,306.51 87.16,307.2 C 88.12,307.57 90.66,308.49 92.81,309.24 94.96,309.98 98.04,311.09 99.65,311.7 102.82,312.9 103.12,312.97 103.12,312.51 103.12,312.34 103.61,311.17 104.19,309.91 104.78,308.66 105.85,306.09 106.56,304.2 107.26,302.32 108.03,300.36 108.27,299.84 109.03,298.14 112.23,288.97 113.33,285.31 113.92,283.34 114.59,281.3 114.82,280.78 115.05,280.27 115.76,277.87 116.39,275.47 117.02,273.06 117.66,270.81 117.81,270.47 118.27,269.4 118.7,267.84 120.02,262.34 120.72,259.42 121.49,256.26 121.73,255.31 122.7,251.57 124.06,244.25 123.84,244.03 123.58,243.79 123.03,243.63 114.53,241.34 107.11,239.35 107.61,239.38 107.22,240.83 Z M 204.22,241.61 C 201.64,242.29 198.47,243.12 197.18,243.44 195.89,243.76 194.47,244.16 194.03,244.33 L 193.23,244.63 194.9,249.74 C 195.81,252.55 196.7,255.12 196.86,255.47 197.02,255.81 197.52,257.43 197.97,259.06 198.43,260.69 199.21,263.3 199.71,264.84 200.93,268.61 202.77,275.21 204.97,283.75 205.97,287.62 206.86,290.99 206.96,291.25 207.06,291.51 207.37,292.74 207.66,293.98 207.96,295.23 208.24,296.25 208.3,296.25 208.44,296.25 211.36,295.11 212.66,294.55 213.17,294.32 215.98,293.19 218.91,292.02 225.47,289.4 224.96,289.98 223.95,286.34 223.48,284.66 222.6,281.45 222,279.22 221.4,276.98 220.37,273.4 219.7,271.25 219.03,269.1 218.1,266.01 217.63,264.37 217.15,262.74 216.66,261.27 216.54,261.09 216.42,260.92 215.73,258.81 215,256.41 214.27,254 213.57,251.89 213.44,251.72 213.31,251.55 212.61,249.51 211.88,247.19 210.49,242.74 209.51,240.29 209.13,240.34 209.01,240.36 206.8,240.93 204.22,241.61 Z M 157.19,244.06 C 149.05,244.92 148.12,245.05 148.27,245.29 148.35,245.42 148.84,248.11 149.36,251.28 149.88,254.44 150.45,257.66 150.62,258.44 151.21,261.14 152.55,275.45 153.27,286.72 153.53,290.84 153.83,295.62 153.94,297.34 154.05,299.06 154.18,301.7 154.21,303.21 154.25,304.71 154.33,306 154.4,306.07 154.55,306.21 172.24,303.82 172.38,303.64 172.55,303.43 171.36,284.96 170.87,280.31 170.69,278.51 170.5,276.54 170.45,275.94 170.12,271.39 167.96,255.05 167.51,253.75 167.37,253.32 166.86,250.82 166.38,248.2 L 165.51,243.44 163.93,243.47 C 163.06,243.5 160.02,243.76 157.19,244.06 Z M 157.19,244.06" />
		<path id="logoCanvas-path2" fill-rule="evenodd" stroke="none" fill="rgb(4, 4, 4)" d="M 185.31,25.2 C 179.19,25.86 170.66,27.07 167.5,27.72 165.35,28.16 162.56,28.71 161.29,28.95 157.41,29.66 147.09,32.56 142.5,34.23 141.38,34.64 139.77,35.2 138.91,35.49 138.05,35.77 136.6,36.34 135.69,36.75 134.79,37.16 133.9,37.5 133.71,37.5 133.53,37.5 132.45,37.94 131.3,38.47 130.16,39 128.52,39.71 127.66,40.05 126.8,40.4 125.67,40.92 125.16,41.23 124.64,41.53 123.73,41.97 123.12,42.2 122.24,42.55 117.59,45.01 111.93,48.12 108.93,49.78 106.7,51.09 106.56,51.27 106.48,51.4 105.55,51.99 104.5,52.61 103.46,53.22 102.42,53.94 102.2,54.2 101.98,54.47 101.61,54.69 101.39,54.69 101.17,54.69 100.74,54.93 100.45,55.22 100.16,55.51 98.69,56.6 97.19,57.64 95.68,58.68 93.56,60.23 92.48,61.09 88.4,64.31 85.46,66.69 85.31,66.89 85.23,67 84.38,67.76 83.44,68.57 81.29,70.43 70,81.56 70.26,81.56 70.36,81.56 70.03,81.96 69.52,82.44 67.76,84.11 65.46,86.78 62.84,90.18 61.39,92.06 59.99,93.77 59.73,93.98 59.47,94.2 59.38,94.37 59.53,94.37 59.69,94.37 59.39,94.83 58.88,95.39 58.37,95.95 57.47,97.11 56.88,97.97 56.29,98.83 55.7,99.58 55.56,99.63 55.42,99.69 55.31,99.9 55.31,100.1 55.31,100.3 54.89,100.96 54.38,101.56 53.86,102.16 53.44,102.77 53.44,102.91 53.44,103.16 51.64,105.92 51.27,106.25 51.17,106.34 51.05,106.62 50.99,106.87 50.94,107.13 50.7,107.55 50.47,107.81 50.04,108.29 48.58,110.8 46.64,114.37 46.03,115.49 45.41,116.49 45.26,116.58 45.11,116.68 44.93,117.04 44.87,117.38 44.8,117.72 44.3,118.76 43.74,119.7 43.19,120.64 42.71,121.55 42.69,121.73 42.66,121.91 42.2,122.96 41.67,124.07 39.54,128.54 38.44,130.98 38.44,131.26 38.44,131.42 38,132.5 37.46,133.66 36.92,134.83 36.44,136.06 36.38,136.41 36.33,136.75 35.85,138.16 35.3,139.53 34.76,140.91 34.25,142.38 34.18,142.81 34.1,143.24 33.7,144.51 33.29,145.62 32.43,147.98 32.13,148.97 32,149.84 31.95,150.19 31.48,152.02 30.97,153.91 30,157.46 27.83,167.61 27.86,168.44 27.87,168.69 27.48,171.44 26.99,174.53 L 26.1,180.16 26.1,195.78 C 26.09,211.18 26.11,211.49 26.95,217.34 28.25,226.33 28.44,227.41 29.21,230.62 29.61,232.26 30.02,234.23 30.14,235 30.25,235.77 30.7,237.53 31.13,238.91 31.57,240.28 31.98,241.76 32.03,242.19 32.09,242.62 32.59,244.3 33.14,245.92 33.68,247.55 34.19,249.23 34.27,249.67 34.35,250.1 34.6,250.88 34.84,251.4 36,253.99 36.49,255.28 36.37,255.4 36.29,255.48 36.73,256.61 37.34,257.93 37.94,259.24 38.44,260.45 38.44,260.61 38.44,260.9 39.7,263.72 41.67,267.81 42.2,268.93 42.66,269.98 42.69,270.16 42.71,270.33 43.19,271.24 43.74,272.17 44.3,273.11 44.79,274.11 44.84,274.38 44.9,274.66 45.37,275.51 45.89,276.28 46.41,277.05 46.88,277.89 46.93,278.14 46.99,278.39 47.11,278.66 47.21,278.75 47.31,278.84 47.94,279.89 48.6,281.09 49.26,282.3 50.15,283.74 50.56,284.3 50.98,284.85 51.2,285.31 51.05,285.32 50.9,285.32 50.92,285.42 51.09,285.55 51.51,285.86 53.44,288.7 53.44,289.01 53.44,289.15 53.69,289.53 53.99,289.86 54.3,290.2 55,291.14 55.56,291.95 58.12,295.74 58.57,296.36 59.26,297.11 59.67,297.54 60,298.09 60,298.33 60,298.56 60.13,298.75 60.28,298.75 60.44,298.75 61.05,299.42 61.63,300.23 65.16,305.13 76.85,317.56 83.22,323.17 83.87,323.75 84.71,324.51 85.09,324.86 85.77,325.5 88.88,328 92.91,331.16 94.06,332.06 96.16,333.6 97.58,334.59 99,335.57 100.23,336.47 100.31,336.58 100.4,336.69 100.83,336.98 101.27,337.22 102.32,337.79 105.99,340.18 106.47,340.6 106.67,340.78 107.35,341.21 107.97,341.56 108.59,341.91 110.11,342.78 111.35,343.49 121.74,349.49 135.29,355.57 144.22,358.25 144.91,358.46 146.88,359.07 148.59,359.6 155.76,361.84 167.37,364.52 171.94,364.99 173.38,365.14 175.39,365.41 176.41,365.59 186.92,367.43 212.39,367.44 223.59,365.61 224.62,365.44 226.73,365.17 228.28,365 229.83,364.83 232.64,364.33 234.53,363.89 236.42,363.45 238.74,362.96 239.67,362.8 242.76,362.28 252.97,359.36 258.28,357.49 259.66,357.01 261.13,356.51 261.56,356.39 261.99,356.27 263.23,355.76 264.31,355.27 265.38,354.78 266.42,354.37 266.6,354.37 266.78,354.37 267.87,353.94 269.01,353.41 270.16,352.87 271.73,352.18 272.5,351.88 274.51,351.07 286.94,344.72 287.53,344.19 287.8,343.95 288.13,343.75 288.27,343.75 288.6,343.75 291.7,341.88 295.47,339.41 297.19,338.28 298.83,337.21 299.11,337.04 302.23,335.13 311.61,327.92 315.96,324.09 319.01,321.4 318.73,321.67 324.84,315.53 327.42,312.94 330.06,310.3 330.7,309.68 331.35,309.05 331.88,308.38 331.88,308.2 331.88,308.01 332.22,307.61 332.64,307.29 333.06,306.98 334.49,305.38 335.81,303.75 337.12,302.12 338.34,300.69 338.5,300.59 338.67,300.48 338.78,300.3 338.74,300.17 338.71,300.05 339.12,299.45 339.66,298.85 340.19,298.24 340.63,297.64 340.63,297.51 340.63,297.37 340.86,297.07 341.14,296.84 341.55,296.49 345.2,291.36 346.41,289.41 346.58,289.13 346.8,288.84 346.9,288.75 347,288.66 347.41,288 347.81,287.27 348.22,286.53 348.65,285.94 348.77,285.94 348.9,285.94 349.08,285.6 349.19,285.18 349.29,284.76 349.57,284.23 349.81,283.99 350.04,283.75 350.77,282.58 351.42,281.39 352.07,280.2 352.71,279.15 352.84,279.06 352.97,278.97 353.12,278.69 353.18,278.43 353.24,278.18 353.75,277.21 354.32,276.28 354.9,275.35 355.41,274.36 355.47,274.08 355.52,273.8 356.02,272.8 356.57,271.86 357.12,270.92 357.6,270.01 357.63,269.82 357.65,269.64 358.2,268.48 358.85,267.25 359.5,266.02 360.01,264.94 360,264.84 359.98,264.75 360.39,263.76 360.92,262.65 361.44,261.53 361.88,260.49 361.88,260.32 361.88,260.15 362.32,259.06 362.86,257.9 363.39,256.73 363.88,255.5 363.93,255.16 363.98,254.81 364.52,253.28 365.14,251.74 365.75,250.21 366.19,248.89 366.11,248.82 366.04,248.74 366.26,247.96 366.61,247.07 367.37,245.18 368.18,242.6 368.29,241.72 368.34,241.37 368.81,239.63 369.34,237.85 369.88,236.07 370.31,234.29 370.31,233.9 370.31,233.51 370.74,231.41 371.26,229.23 371.78,227.05 372.28,224.4 372.36,223.34 372.44,222.28 372.65,220.63 372.82,219.68 374.98,207.53 374.98,184.35 372.82,172.19 372.65,171.24 372.45,169.62 372.37,168.59 372.28,167.56 371.8,164.96 371.3,162.81 370.8,160.66 370.29,158.25 370.18,157.45 370.06,156.65 369.62,154.89 369.2,153.55 368.77,152.21 368.35,150.69 368.26,150.17 368.05,148.91 367.59,147.39 366.83,145.42 366.48,144.53 366.16,143.48 366.11,143.08 366,142.19 364.72,138.74 364.32,138.23 364.16,138.03 363.99,137.54 363.94,137.13 363.85,136.35 363.73,136.01 362.61,133.51 362.21,132.6 361.88,131.72 361.88,131.55 361.88,131.39 361.43,130.3 360.88,129.14 360.33,127.98 359.93,127.03 360,127.03 360.06,127.03 359.57,125.99 358.9,124.71 358.23,123.43 357.65,122.24 357.63,122.05 357.6,121.87 357.12,120.95 356.57,120.01 356.02,119.07 355.51,118.03 355.45,117.7 355.38,117.37 355.13,116.87 354.89,116.6 354.31,115.93 353.29,113.97 353.37,113.67 353.41,113.54 353.3,113.44 353.13,113.44 352.95,113.44 352.81,113.31 352.81,113.15 352.81,112.85 351.44,110.46 350.04,108.33 349.6,107.67 349.21,106.91 349.18,106.64 349.14,106.37 348.99,106.07 348.85,105.97 348.41,105.65 346.88,103.5 346.88,103.2 346.88,103.05 346.63,102.66 346.32,102.32 346.02,101.99 344.81,100.28 343.64,98.52 342.47,96.75 341.4,95.31 341.28,95.31 341.15,95.31 340.84,94.93 340.6,94.47 340.36,94.01 339.78,93.21 339.31,92.7 338.85,92.19 338.54,91.65 338.63,91.51 338.71,91.37 338.66,91.25 338.51,91.25 338.36,91.25 337.38,90.16 336.33,88.83 335.28,87.5 333.81,85.75 333.07,84.94 332.33,84.14 330.81,82.48 329.69,81.26 327.92,79.32 323.43,74.83 319.22,70.78 315.55,67.26 308.44,61.42 304.26,58.52 303.08,57.7 301.43,56.5 300.6,55.86 299.76,55.21 299.01,54.69 298.92,54.69 298.83,54.69 298.07,54.19 297.23,53.59 296.39,52.99 295.6,52.5 295.47,52.5 295.35,52.5 294.59,52.03 293.79,51.46 292.47,50.51 290.77,49.47 288.28,48.1 287.77,47.81 286.43,47.07 285.31,46.45 282.85,45.08 271.98,39.69 271.68,39.69 271.56,39.69 270.58,39.27 269.5,38.76 267.33,37.73 266.24,37.31 259.84,35.05 251.91,32.24 243.31,29.72 239.06,28.95 237.77,28.72 234.89,28.16 232.66,27.71 221.85,25.53 195.3,24.12 185.31,25.2 Z M 307.43,86.95 L 307.51,95.62 265.16,95.62 222.81,95.62 222.81,108.28 222.81,120.93 258.98,121.01 295.16,121.09 295.24,129.61 295.32,138.12 259.07,138.12 222.81,138.12 222.81,150.78 222.81,163.44 258.52,163.44 C 278.15,163.44 294.38,163.55 294.58,163.68 294.83,163.84 294.92,166.3 294.89,172.34 L 294.84,180.78 258.83,180.86 222.81,180.94 222.81,194.22 222.81,207.5 268.92,207.5 315.03,207.5 314.96,219.77 C 314.92,226.51 314.79,234.7 314.66,237.97 314.25,248.86 314.02,253.9 313.9,254.69 313.83,255.12 313.56,258.42 313.28,262.03 310.49,298.98 305.18,308.4 284.38,313.26 282.62,313.68 241.59,314.07 241.56,313.67 241.55,313.63 240.59,309.73 239.41,305 237,295.31 236.98,295.93 239.69,296.26 248.58,297.35 268.61,297.36 273.62,296.28 288.39,293.09 291.64,288.36 293.9,266.72 294.72,258.83 295.23,245.79 295.19,233.75 L 295.16,224.84 202.66,224.69 110.16,224.53 110.13,151.72 C 110.11,111.67 110.16,78.73 110.24,78.51 110.35,78.2 130.24,78.14 208.86,78.2 L 307.34,78.28 307.43,86.95 Z M 129.38,108.28 L 129.38,120.94 166.56,120.94 203.75,120.94 203.75,108.28 203.75,95.62 166.56,95.62 129.38,95.62 129.38,108.28 Z M 129.38,150.78 L 129.38,163.44 166.56,163.44 203.75,163.44 203.75,150.78 203.75,138.12 166.56,138.12 129.38,138.12 129.38,150.78 Z M 129.21,181.33 C 129.12,181.54 129.09,187.48 129.14,194.53 L 129.22,207.34 166.56,207.34 203.91,207.34 203.91,194.22 203.91,181.09 166.63,181.01 C 136.96,180.95 129.33,181.01 129.21,181.33 Z M 257.76,241.4 C 259.16,244.57 260.31,247.32 260.31,247.5 260.31,247.69 260.58,248.36 260.9,249 261.22,249.63 262.14,251.98 262.94,254.22 263.74,256.45 264.53,258.56 264.69,258.91 265.07,259.69 268.79,270.93 269.69,274.02 270.06,275.29 270.25,276.43 270.1,276.56 269.83,276.81 255.28,280.36 254.24,280.43 253.73,280.46 253.46,279.87 252.47,276.56 249.63,267.02 245.31,255.26 240.28,243.37 239.71,242.04 239.32,240.9 239.39,240.83 239.65,240.6 254.21,235.67 254.71,235.65 255.06,235.63 255.97,237.35 257.76,241.4 Z M 110.78,240.13 C 118.13,242.08 124.17,243.75 124.3,243.88 124.42,244 123.61,248.11 122.97,250.62 122.91,250.88 122.35,253.34 121.73,256.09 121.11,258.84 120.39,261.87 120.12,262.81 119.84,263.76 119.58,264.74 119.52,265 118.47,269.55 113.93,284.64 111.61,291.25 109.93,296.07 106.97,303.99 106.43,305.16 106.19,305.67 105.55,307.2 105.01,308.56 104.19,310.62 103.24,312.74 102.98,313.05 102.91,313.14 92.69,309.52 91.72,309.06 91.38,308.9 89.76,308.32 88.12,307.77 86.49,307.23 85.11,306.75 85.06,306.71 85.01,306.67 85.59,305.32 86.35,303.71 89.04,298.01 92.06,290.55 94.42,283.75 95.11,281.77 95.75,279.94 95.85,279.69 95.96,279.43 96.06,279.15 96.09,279.06 96.12,278.98 96.24,278.69 96.36,278.44 96.52,278.08 98.73,271.14 99.5,268.59 99.55,268.42 99.68,268.07 99.78,267.81 100.33,266.42 104.64,250.56 106.77,242.03 107.42,239.45 107.45,239.37 107.72,239.38 107.86,239.38 109.23,239.72 110.78,240.13 Z M 210.48,242.58 C 210.94,244 211.51,245.58 211.73,246.09 212.28,247.34 216.28,259.42 217.33,262.97 217.79,264.52 218.29,266.06 218.44,266.41 219.16,267.99 225.12,289.67 224.9,289.89 224.71,290.08 208.05,296.59 207.97,296.5 207.93,296.45 207.31,293.87 206.59,290.78 205.88,287.69 205.16,284.87 205,284.53 204.85,284.19 204.01,281.23 203.16,277.97 200.63,268.33 197.54,258.04 194.68,249.68 193.82,247.18 193.12,244.92 193.12,244.66 193.12,244.3 194.56,243.83 198.98,242.74 202.21,241.94 205.83,241.01 207.03,240.67 208.23,240.33 209.31,240.04 209.43,240.03 209.54,240.01 210.02,241.16 210.48,242.58 Z M 165.75,243.67 C 166.22,245.21 167.84,254.34 168.9,261.41 169.98,268.7 170.99,278.44 171.58,287.25 171.77,290.12 171.97,293.14 172.04,293.97 172.1,294.79 172.25,297.37 172.37,299.7 L 172.59,303.94 167,304.65 C 163.92,305.04 160.11,305.56 158.52,305.81 156.93,306.05 155.31,306.25 154.91,306.25 L 154.19,306.25 153.79,297.89 C 153.46,290.86 153.19,286.74 152.33,275.62 151.95,270.71 149.85,253.86 149.34,251.56 149.16,250.79 148.96,249.8 148.89,249.37 148.82,248.94 148.63,248.03 148.45,247.34 147.8,244.75 147.51,244.91 154.22,244.19 156.8,243.92 159.82,243.58 160.94,243.45 164.55,243.02 165.56,243.06 165.75,243.67 Z M 165.75,243.67" />
		<path id="logoCanvas-path3" fill-rule="evenodd" stroke="none" fill="rgb(86, 38, 38)" d="M 145.78,78.36 C 241.17,78.57 307.43,78.57 307.3,78.36 307.22,78.23 262.83,78.16 208.65,78.2 154.48,78.24 126.19,78.31 145.78,78.36 Z M 129.21,108.44 C 129.21,115.4 129.25,118.25 129.3,114.77 129.35,111.28 129.35,105.59 129.3,102.11 129.25,98.63 129.21,101.48 129.21,108.44 Z M 203.89,108.44 C 203.89,115.4 203.93,118.25 203.98,114.77 204.03,111.28 204.03,105.59 203.98,102.11 203.93,98.63 203.89,101.48 203.89,108.44 Z M 240.88,121.17 C 250.91,121.22 267.22,121.22 277.13,121.17 287.05,121.13 278.84,121.09 258.91,121.09 238.97,121.09 230.86,121.13 240.88,121.17 Z M 129.21,150.62 C 129.21,157.41 129.25,160.19 129.3,156.8 129.35,153.4 129.35,147.85 129.3,144.45 129.25,141.06 129.21,143.84 129.21,150.62 Z M 203.88,144.06 C 203.88,147.24 203.93,148.54 203.98,146.95 204.04,145.36 204.04,142.76 203.98,141.17 203.93,139.58 203.88,140.88 203.88,144.06 Z M 203.88,156.72 C 203.88,160.5 203.93,162 203.98,160.06 204.04,158.12 204.04,155.02 203.98,153.19 203.93,151.35 203.88,152.94 203.88,156.72 Z M 240.52,163.67 C 250.35,163.72 266.52,163.72 276.46,163.67 286.4,163.63 278.36,163.59 258.59,163.59 238.83,163.59 230.7,163.63 240.52,163.67 Z M 294.77,164.84 C 294.77,165.53 294.83,165.78 294.91,165.39 294.98,165 294.98,164.44 294.9,164.14 294.82,163.84 294.76,164.16 294.77,164.84 Z M 294.77,167.66 C 294.77,168.34 294.83,168.59 294.91,168.2 294.98,167.81 294.98,167.25 294.9,166.95 294.82,166.65 294.76,166.97 294.77,167.66 Z M 294.76,170.31 C 294.76,170.91 294.82,171.16 294.9,170.86 294.98,170.56 294.98,170.07 294.9,169.77 294.82,169.46 294.76,169.71 294.76,170.31 Z M 294.76,173.12 C 294.76,173.73 294.82,173.97 294.9,173.67 294.98,173.37 294.98,172.88 294.9,172.58 294.82,172.28 294.76,172.52 294.76,173.12 Z M 294.77,175.78 C 294.77,176.47 294.83,176.71 294.91,176.32 294.98,175.94 294.98,175.37 294.9,175.07 294.82,174.78 294.76,175.09 294.77,175.78 Z M 294.77,178.59 C 294.77,179.28 294.83,179.53 294.91,179.14 294.98,178.75 294.98,178.19 294.9,177.89 294.82,177.59 294.76,177.91 294.77,178.59 Z M 314.8,228.91 C 314.8,230.28 314.85,230.8 314.92,230.07 314.98,229.33 314.98,228.21 314.92,227.57 314.85,226.93 314.79,227.53 314.8,228.91 Z M 314.49,238.12 C 314.49,239.93 314.54,240.67 314.61,239.77 314.67,238.86 314.67,237.39 314.61,236.48 314.54,235.58 314.49,236.32 314.49,238.12 Z M 160.08,243.65 C 160.38,243.73 160.87,243.73 161.17,243.65 161.47,243.57 161.23,243.51 160.62,243.51 160.02,243.51 159.78,243.57 160.08,243.65 Z M 295.08,244.69 C 295.08,245.46 295.15,245.78 295.22,245.39 295.3,245 295.3,244.37 295.22,243.98 295.15,243.6 295.08,243.91 295.08,244.69 Z M 154.14,244.28 C 154.44,244.36 154.93,244.36 155.23,244.28 155.53,244.2 155.29,244.13 154.69,244.13 154.09,244.13 153.84,244.2 154.14,244.28 Z M 151.33,244.59 C 151.63,244.67 152.12,244.67 152.42,244.59 152.72,244.51 152.48,244.45 151.87,244.45 151.27,244.45 151.03,244.51 151.33,244.59 Z M 314.17,246.72 C 314.17,247.92 314.22,248.38 314.29,247.73 314.36,247.08 314.36,246.09 314.29,245.54 314.22,244.98 314.16,245.52 314.17,246.72 Z M 211.91,247.19 C 212.39,248.59 212.65,248.87 212.37,247.66 212.24,247.14 212.01,246.58 211.84,246.41 211.68,246.24 211.71,246.6 211.91,247.19 Z M 313.83,253.12 C 313.83,253.9 313.9,254.21 313.97,253.83 314.05,253.44 314.05,252.81 313.97,252.42 313.9,252.03 313.83,252.35 313.83,253.12 Z M 215.36,257.19 C 215.36,257.44 215.48,257.94 215.62,258.28 215.79,258.68 215.89,258.73 215.89,258.44 215.89,258.18 215.77,257.69 215.62,257.34 215.46,256.95 215.36,256.89 215.36,257.19 Z M 169.45,266.56 C 169.45,267.16 169.51,267.41 169.59,267.11 169.67,266.81 169.67,266.32 169.59,266.02 169.51,265.71 169.45,265.96 169.45,266.56 Z M 151.63,268.75 C 151.63,269.35 151.7,269.6 151.78,269.3 151.86,269 151.86,268.5 151.78,268.2 151.7,267.9 151.63,268.15 151.63,268.75 Z M 293.51,270 C 293.51,270.6 293.57,270.85 293.65,270.55 293.73,270.25 293.73,269.75 293.65,269.45 293.57,269.15 293.51,269.4 293.51,270 Z M 200.98,270 C 200.98,270.26 201.1,270.75 201.25,271.09 201.42,271.49 201.52,271.55 201.52,271.25 201.52,270.99 201.4,270.5 201.25,270.16 201.08,269.76 200.98,269.7 200.98,270 Z M 98.62,271.12 C 98.5,271.57 98.47,272.01 98.54,272.08 98.61,272.16 98.77,271.84 98.88,271.38 99,270.93 99.03,270.49 98.96,270.42 98.89,270.34 98.73,270.66 98.62,271.12 Z M 151.95,271.87 C 151.95,272.48 152.01,272.72 152.09,272.42 152.17,272.12 152.17,271.63 152.09,271.33 152.01,271.03 151.95,271.27 151.95,271.87 Z M 221.92,278.75 C 221.92,279.01 222.04,279.5 222.19,279.84 222.36,280.24 222.46,280.3 222.46,280 222.46,279.74 222.34,279.25 222.19,278.91 222.02,278.51 221.92,278.45 221.92,278.75 Z M 95.61,280.2 C 95.43,280.66 95.34,281.17 95.39,281.34 95.45,281.5 95.65,281.13 95.84,280.51 96.25,279.2 96.07,278.98 95.61,280.2 Z M 287.01,290.08 L 286.09,291.09 287.11,290.18 C 287.67,289.67 288.12,289.21 288.12,289.16 288.12,288.92 287.87,289.13 287.01,290.08 Z M 153.51,292.81 C 153.51,293.41 153.57,293.66 153.65,293.36 153.73,293.06 153.73,292.57 153.65,292.27 153.57,291.96 153.51,292.21 153.51,292.81 Z M 172.29,299.84 C 172.29,301.05 172.35,301.5 172.42,300.85 172.48,300.2 172.48,299.22 172.41,298.67 172.34,298.11 172.29,298.64 172.29,299.84 Z M 172.29,299.84" />
		<path id="logoCanvas-path4" fill-rule="evenodd" stroke="none" fill="rgb(117, 76, 76)" d="M 243.98,95.55 C 255.54,95.59 274.46,95.59 286.02,95.55 297.57,95.5 288.12,95.46 265,95.46 241.88,95.46 232.43,95.5 243.98,95.55 Z M 222.64,108.44 C 222.64,115.57 222.68,118.49 222.73,114.92 222.78,111.36 222.78,105.52 222.73,101.95 222.68,98.39 222.64,101.31 222.64,108.44 Z M 147.89,121.17 C 158.16,121.22 174.97,121.22 185.23,121.17 195.5,121.13 187.1,121.09 166.56,121.09 146.02,121.09 137.62,121.13 147.89,121.17 Z M 295.07,129.45 L 295,137.81 258.98,137.89 222.97,137.97 258.99,138.05 C 287.83,138.11 295.05,138.05 295.17,137.73 295.25,137.51 295.28,133.68 295.23,129.21 L 295.14,121.09 295.07,129.45 Z M 222.64,150.94 C 222.64,158.07 222.68,160.99 222.73,157.42 222.78,153.85 222.78,148.02 222.73,144.45 222.68,140.89 222.64,143.81 222.64,150.94 Z M 147.89,163.67 C 158.16,163.72 174.97,163.72 185.23,163.67 195.5,163.63 187.1,163.59 166.56,163.59 146.02,163.59 137.62,163.63 147.89,163.67 Z M 148.07,180.86 C 158.44,180.9 175.31,180.9 185.57,180.86 195.83,180.81 187.34,180.78 166.72,180.78 146.09,180.78 137.7,180.81 148.07,180.86 Z M 222.64,181.02 C 222.56,181.23 222.53,187.31 222.58,194.53 L 222.66,207.66 222.74,194.3 222.81,180.94 258.83,180.86 294.84,180.78 258.82,180.7 C 230.22,180.64 222.76,180.71 222.64,181.02 Z M 147.89,207.73 C 158.16,207.78 174.97,207.78 185.23,207.73 195.5,207.69 187.1,207.65 166.56,207.65 146.02,207.65 137.62,207.69 147.89,207.73 Z M 246.04,207.73 C 258.73,207.78 279.4,207.78 291.98,207.73 304.55,207.69 294.17,207.65 268.91,207.65 243.64,207.65 233.35,207.69 246.04,207.73 Z M 314.82,220.62 C 314.82,223.63 314.86,224.86 314.92,223.36 314.98,221.85 314.98,219.39 314.92,217.89 314.86,216.39 314.82,217.62 314.82,220.62 Z M 163.83,243.34 C 164.13,243.42 164.62,243.42 164.92,243.34 165.22,243.26 164.98,243.2 164.37,243.2 163.77,243.2 163.53,243.26 163.83,243.34 Z M 212.85,250.32 C 213.05,250.92 213.34,251.54 213.49,251.71 213.64,251.88 213.6,251.53 213.4,250.93 213.2,250.33 212.91,249.71 212.76,249.54 212.61,249.37 212.65,249.72 212.85,250.32 Z M 262.36,253.52 C 262.48,253.9 262.7,254.36 262.86,254.52 263.01,254.69 262.98,254.38 262.79,253.82 262.39,252.69 262.03,252.43 262.36,253.52 Z M 245.79,256.95 C 245.91,257.34 246.14,257.79 246.29,257.96 246.45,258.13 246.42,257.81 246.23,257.26 245.83,256.12 245.47,255.87 245.79,256.95 Z M 150.7,260 C 150.7,260.6 150.76,260.85 150.84,260.55 150.92,260.25 150.92,259.75 150.84,259.45 150.76,259.15 150.7,259.4 150.7,260 Z M 151.01,262.5 C 151.01,263.1 151.07,263.35 151.15,263.05 151.23,262.75 151.23,262.25 151.15,261.95 151.07,261.65 151.01,261.9 151.01,262.5 Z M 117.71,270.55 C 117.5,270.91 117.1,272.99 117.28,272.81 117.48,272.61 118.11,270.31 117.96,270.31 117.9,270.31 117.79,270.42 117.71,270.55 Z M 170.07,272.5 C 170.07,273.1 170.14,273.35 170.22,273.05 170.29,272.75 170.29,272.25 170.22,271.95 170.14,271.65 170.07,271.9 170.07,272.5 Z M 91.33,292.27 C 90.99,293.18 91,293.22 91.42,292.68 91.81,292.15 92.05,291.25 91.79,291.25 91.74,291.25 91.53,291.71 91.33,292.27 Z M 251.95,313.67 C 257.58,313.72 266.79,313.72 272.42,313.67 278.05,313.62 273.44,313.58 262.19,313.58 250.93,313.58 246.32,313.62 251.95,313.67 Z M 251.95,313.67" />
    </g>
</svg>
